<svg width="64" height="64" viewBox="0 0 64 64" fill="none" xmlns="http://www.w3.org/2000/svg">
<path d="M17.92 44.3733C18.599 44.1753 19.3288 44.2551 19.9489 44.5952C20.569 44.9352 21.0286 45.5077 21.2267 46.1867C21.4247 46.8656 21.3449 47.5954 21.0048 48.2156C20.6648 48.8357 20.0923 49.2953 19.4133 49.4933C18.08 49.8827 17.12 50.2933 16.504 50.6667C17.1387 51.048 18.1413 51.4747 19.5333 51.872C22.6133 52.752 27.0213 53.3333 32 53.3333C36.9787 53.3333 41.3867 52.752 44.4667 51.872C45.8613 51.4747 46.8613 51.048 47.496 50.6667C46.8827 50.2933 45.9227 49.8827 44.5893 49.4933C43.9211 49.2866 43.3608 48.8255 43.0293 48.2095C42.6978 47.5936 42.6216 46.872 42.8171 46.2004C43.0127 45.5287 43.4643 44.9608 44.0747 44.6191C44.685 44.2773 45.4052 44.1891 46.08 44.3733C47.8613 44.8933 49.4933 45.56 50.7467 46.416C51.9067 47.2133 53.3333 48.6027 53.3333 50.6667C53.3333 52.7547 51.872 54.1547 50.6933 54.952C49.4187 55.8107 47.752 56.48 45.9307 57C42.256 58.0533 37.3333 58.6667 32 58.6667C26.6667 58.6667 21.744 58.0533 18.0693 57C16.248 56.48 14.5813 55.8107 13.3067 54.952C12.128 54.152 10.6667 52.7547 10.6667 50.6667C10.6667 48.6027 12.0933 47.2133 13.2533 46.416C14.5067 45.56 16.1387 44.8933 17.92 44.3733ZM32 20C27.8933 20 25.328 24.4453 27.3813 28C28.3333 29.6507 30.0933 30.6667 32 30.6667C36.1067 30.6667 38.672 26.2213 36.6187 22.6667C36.1506 21.8559 35.4773 21.1827 34.6666 20.7146C33.8559 20.2465 32.9362 20 32 20Z" fill="#F15623"/>
<path opacity="0.3" d="M32 5.33333C37.3043 5.33333 42.3914 7.44047 46.1421 11.1912C49.8929 14.9419 52 20.029 52 25.3333C52 32.1813 48.2667 37.7493 44.4 41.7067C42.8629 43.2638 41.2112 44.7034 39.4587 46.0133C37.8747 47.2027 34.2533 49.432 34.2533 49.432C33.5665 49.8224 32.79 50.0276 32 50.0276C31.21 50.0276 30.4335 49.8224 29.7467 49.432C27.9495 48.3899 26.2117 47.2486 24.5413 46.0133C22.7888 44.7034 21.1371 43.2638 19.6 41.7067C15.7333 37.7493 12 32.1813 12 25.3333C12 20.029 14.1071 14.9419 17.8579 11.1912C21.6086 7.44047 26.6957 5.33333 32 5.33333Z" fill="#F15623"/>
</svg>
