<?xml version="1.0" encoding="UTF-8" standalone="no"?>
<!-- Created with Inkscape (http://www.inkscape.org/) -->

<svg
   xmlns:dc="http://purl.org/dc/elements/1.1/"
   xmlns:cc="http://creativecommons.org/ns#"
   xmlns:rdf="http://www.w3.org/1999/02/22-rdf-syntax-ns#"
   xmlns:svg="http://www.w3.org/2000/svg"
   xmlns="http://www.w3.org/2000/svg"
   xmlns:sodipodi="http://sodipodi.sourceforge.net/DTD/sodipodi-0.dtd"
   xmlns:inkscape="http://www.inkscape.org/namespaces/inkscape"
   width="200"
   height="220"
   id="svg2"
   version="1.1"
   inkscape:version="0.48.2 r9819"
   sodipodi:docname="Pinkerton Consulting &amp; Investigations logo.svg">
  <title
     id="title3327">Pinkerton Consulting &amp; Investigations, Inc. logo</title>
  <defs
     id="defs4">
    <clipPath
       id="clipPath3092"
       clipPathUnits="userSpaceOnUse">
      <path
         id="path3094"
         d="m 519.236,77.201 66.694,0 0,62.64 -66.694,0 0,-62.64 z"
         inkscape:connector-curvature="0" />
    </clipPath>
    <clipPath
       id="clipPath3076"
       clipPathUnits="userSpaceOnUse">
      <path
         id="path3078"
         d="m 519.236,77.201 56.046,0 0,62.64 -56.046,0 0,-62.64 z"
         inkscape:connector-curvature="0" />
    </clipPath>
    <clipPath
       id="clipPath3060"
       clipPathUnits="userSpaceOnUse">
      <path
         id="path3062"
         d="m 519.236,77.201 66.694,0 0,62.64 -66.694,0 0,-62.64 z"
         inkscape:connector-curvature="0" />
    </clipPath>
  </defs>
  <sodipodi:namedview
     id="base"
     pagecolor="#ffffff"
     bordercolor="#666666"
     borderopacity="1.0"
     inkscape:pageopacity="0.0"
     inkscape:pageshadow="2"
     inkscape:zoom="2.1467868"
     inkscape:cx="97.059189"
     inkscape:cy="109.00011"
     inkscape:document-units="px"
     inkscape:current-layer="layer1"
     showgrid="false"
     units="px"
     inkscape:window-width="1024"
     inkscape:window-height="689"
     inkscape:window-x="0"
     inkscape:window-y="27"
     inkscape:window-maximized="1"
     fit-margin-top="0"
     fit-margin-left="0"
     fit-margin-right="0"
     fit-margin-bottom="0" />
  <metadata
     id="metadata7">
    <rdf:RDF>
      <cc:Work
         rdf:about="">
        <dc:format>image/svg+xml</dc:format>
        <dc:type
           rdf:resource="http://purl.org/dc/dcmitype/StillImage" />
        <dc:title>Pinkerton Consulting &amp; Investigations, Inc. logo</dc:title>
        <dc:creator>
          <cc:Agent>
            <dc:title>Pinkerton Consulting &amp; Investigations, Inc.</dc:title>
          </cc:Agent>
        </dc:creator>
        <dc:publisher>
          <cc:Agent>
            <dc:title>Pinkerton Consulting &amp; Investigations, Inc.</dc:title>
          </cc:Agent>
        </dc:publisher>
        <dc:description>Extracted from Pinkerton Consulting &amp; Investigations, Inc. Press Kit PDF file</dc:description>
        <dc:source>http://www.pinkerton.com/press-kit</dc:source>
      </cc:Work>
    </rdf:RDF>
  </metadata>
  <g
     inkscape:label="Layer 1"
     inkscape:groupmode="layer"
     id="layer1"
     transform="translate(-109.87519,-732.244)">
    <g
       id="g3305"
       transform="matrix(2.7841766,0,0,2.7841766,-367.56354,-1505.496)">
      <g
         id="g3295">
        <g
           id="g3064"
           transform="matrix(1.25,0,0,-1.25,172.37225,841.21765)"
           style="fill:#000000">
          <path
             inkscape:connector-curvature="0"
             d="m 0,0 0,0 0,-12.781 8.848,5.715 C 3.332,-3.778 0,0 0,0"
             style="fill:#000000;fill-opacity:1;fill-rule:nonzero;stroke:none"
             id="path3066" />
        </g>
        <g
           id="g3068"
           transform="matrix(1.25,0,0,-1.25,235.64725,840.13765)"
           style="fill:#000000">
          <path
             inkscape:connector-curvature="0"
             d="m 0,0 c -0.833,-0.926 -11.516,-12.489 -25.259,-12.7 l 0,-10.539 c 13.743,0.171 24.426,9.543 25.259,10.293 L 0,0 z"
             style="fill:#000000;fill-opacity:1;fill-rule:nonzero;stroke:none"
             id="path3070" />
        </g>
        <g
           id="g3080"
           transform="matrix(1.25,0,0,-1.25,204.07324,836.71903)"
           style="fill:#000000">
          <path
             inkscape:connector-curvature="0"
             d="m 0,0 0,-12.078 c 6.677,0.037 12.078,5.46 12.078,12.146 0,6.709 -5.438,12.147 -12.147,12.147 -6.708,0 -12.147,-5.438 -12.147,-12.147 0,-2.463 0.735,-4.755 1.995,-6.669 L 0,0 z"
             style="fill:#000000;fill-opacity:1;fill-rule:nonzero;stroke:none"
             id="path3082" />
        </g>
        <g
           id="g3084"
           transform="matrix(1.25,0,0,-1.25,203.85687,804.09503)"
           style="fill:#000000">
          <path
             inkscape:connector-curvature="0"
             d="m 0,0 c -14.639,0.1 -25.188,-9.596 -25.188,-9.596 l 0,-12.782 0,0 c 0,0 10.549,11.964 25.188,11.84 13.827,-0.116 24.596,-11.775 25.432,-12.704 l 0,12.946 C 24.596,-9.543 13.827,-0.094 0,0"
             style="fill:#000000;fill-opacity:1;fill-rule:nonzero;stroke:none"
             id="path3086" />
        </g>
      </g>
      <g
         id="g3265">
        <path
           id="path3098"
           style="fill:#000000;fill-opacity:1;fill-rule:nonzero;stroke:none"
           d="m 175.29012,878.0339 c 0.7325,0 1.12,-0.34375 1.12,-0.99875 l 0,-0.0438 c 0,-0.6775 -0.39875,-0.955 -1.10875,-0.955 l -0.66625,0 0,1.9975 0.655,0 z m -2.9175,-3.705 3.0175,0 c 2.175,0 3.18375,0.965 3.18375,2.65125 l 0,0.0438 c 0,1.665 -1.12,2.56375 -3.08375,2.56375 l -0.855,0 0,2.6725 -2.2625,0 0,-7.93125 z"
           inkscape:connector-curvature="0" />
        <path
           inkscape:connector-curvature="0"
           d="m 179.38262,874.32828 2.29625,0 0,7.9325 -2.29625,0 0,-7.9325 z"
           style="fill:#000000;fill-opacity:1;fill-rule:nonzero;stroke:none"
           id="path3100" />
        <path
           id="path3104"
           style="fill:#000000;fill-opacity:1;fill-rule:nonzero;stroke:none"
           d="m 182.98824,874.32865 2.5625,0 2.54125,4.47125 0,-4.47125 1.985,0 0,7.9325 -2.19625,0 -2.895,-4.98125 0,4.98125 -1.9975,0 0,-7.9325 z"
           inkscape:connector-curvature="0" />
        <path
           id="path3108"
           style="fill:#000000;fill-opacity:1;fill-rule:nonzero;stroke:none"
           d="m 191.3385,874.32865 2.285,0 0,3.14 2.38625,-3.14 2.37375,0 -2.90625,3.68375 3.06125,4.24875 -2.62875,0 -2.28625,-3.3175 0,3.3175 -2.285,0 0,-7.9325 z"
           inkscape:connector-curvature="0" />
        <path
           id="path3112"
           style="fill:#000000;fill-opacity:1;fill-rule:nonzero;stroke:none"
           d="m 199.12962,874.32865 5.48,0 0,1.7525 -3.21625,0 0,1.365 2.5625,0 0,1.62 -2.5625,0 0,1.44125 3.39375,0 0,1.75375 -5.6575,0 0,-7.9325 z"
           inkscape:connector-curvature="0" />
        <path
           id="path3116"
           style="fill:#000000;fill-opacity:1;fill-rule:nonzero;stroke:none"
           d="m 208.84775,877.94528 c 0.765,0 1.1425,-0.32125 1.1425,-0.965 l 0,-0.045 c 0,-0.6425 -0.4,-0.89875 -1.13125,-0.89875 l -0.74375,0 0,1.90875 0.7325,0 z m -2.99625,-3.61625 3.10625,0 c 2.075,0 3.22875,0.8425 3.22875,2.5175 l 0,0.045 c 0,1.13125 -0.59875,1.76375 -1.43,2.085 l 1.89625,3.28375 -2.39625,0 -1.60875,-2.84 -0.5325,0 0,2.84 -2.26375,0 0,-7.93125 z"
           inkscape:connector-curvature="0" />
        <path
           id="path3120"
           style="fill:#000000;fill-opacity:1;fill-rule:nonzero;stroke:none"
           d="m 214.82524,876.08153 -2.0525,0 0,-1.7525 6.39,0 0,1.7525 -2.0525,0 0,6.17875 -2.285,0 0,-6.17875 z"
           inkscape:connector-curvature="0" />
        <path
           id="path3124"
           style="fill:#000000;fill-opacity:1;fill-rule:nonzero;stroke:none"
           d="m 225.32024,878.32253 0,-0.0888 c 0,-1.40875 -0.71,-2.24125 -1.83,-2.24125 -1.12125,0 -1.82,0.81 -1.82,2.2525 l 0,0.0888 c 0,1.4425 0.7325,2.27375 1.83125,2.27375 1.12,0 1.81875,-0.865 1.81875,-2.285 m -6.02375,0.0225 0,-0.0888 c 0,-2.41875 1.81875,-4.03875 4.19375,-4.03875 2.4175,0 4.205,1.52 4.205,3.9825 l 0,0.0888 c 0,2.44125 -1.67625,4.105 -4.23875,4.105 -2.5625,0 -4.16,-1.66375 -4.16,-4.04875"
           inkscape:connector-curvature="0" />
        <path
           id="path3128"
           style="fill:#000000;fill-opacity:1;fill-rule:nonzero;stroke:none"
           d="m 228.57887,874.32865 2.5625,0 2.54125,4.47125 0,-4.47125 1.985,0 0,7.9325 -2.19625,0 -2.895,-4.98125 0,4.98125 -1.9975,0 0,-7.9325 z"
           inkscape:connector-curvature="0" />
        <path
           id="path3132"
           style="fill:#000000;fill-opacity:1;fill-rule:nonzero;stroke:none"
           d="m 239.81099,875.6209 c 0.24375,0 0.37,-0.10375 0.37,-0.3125 l 0,-0.0113 c 0,-0.20875 -0.13875,-0.29 -0.37,-0.29 l -0.23125,0 0,0.61375 0.23125,0 z m -0.95,-1.15875 0.985,0 c 0.66,0 1.03,0.2675 1.03,0.8 l 0,0.0113 c 0,0.37125 -0.19625,0.5675 -0.4625,0.68375 l 0.61375,1.0425 -0.74125,0 -0.52125,-0.915 -0.185,0 0,0.915 -0.71875,0 0,-2.5375 z m 3.08125,1.2975 c 0,-1.2625 -0.89125,-2.13125 -2.13125,-2.13125 -1.24,0 -2.13125,0.88125 -2.13125,2.14375 0,1.27375 0.93875,2.11875 2.13125,2.11875 1.205,0 2.13125,-0.86875 2.13125,-2.13125 m -4.76,0.0125 c 0,-1.425 1.1575,-2.58375 2.62875,-2.58375 1.4825,0 2.6175,1.14625 2.6175,2.57125 0,1.44875 -1.15875,2.57125 -2.6175,2.57125 -1.46,0 -2.62875,-1.11125 -2.62875,-2.55875"
           inkscape:connector-curvature="0" />
      </g>
    </g>
  </g>
</svg>
