<svg width="64" height="64" viewBox="0 0 64 64" fill="none" xmlns="http://www.w3.org/2000/svg">
<path d="M56.375 46.75C54.39 44.75 49.5825 41.8312 47.25 40.655C44.2125 39.125 43.9625 39 41.575 40.7738C39.9825 41.9575 38.9237 43.015 37.06 42.6175C35.1962 42.22 31.1462 39.9787 27.6 36.4437C24.0537 32.9087 21.6825 28.7412 21.2837 26.8837C20.885 25.0263 21.96 23.98 23.1325 22.3837C24.785 20.1337 24.66 19.7588 23.2475 16.7213C22.1462 14.3588 19.1425 9.59625 17.135 7.62125C14.9875 5.5 14.9875 5.875 13.6037 6.45C12.4772 6.92389 11.3964 7.50005 10.375 8.17125C8.375 9.5 7.265 10.6037 6.48875 12.2625C5.7125 13.9212 5.36375 17.81 9.3725 25.0925C13.3812 32.375 16.1937 36.0988 22.015 41.9038C27.8362 47.7088 32.3125 50.83 38.8563 54.5C46.9513 59.0338 50.0563 58.15 51.72 57.375C53.3838 56.6 54.4925 55.5 55.8237 53.5C56.4966 52.4803 57.0741 51.4007 57.5488 50.275C58.125 48.8963 58.5 48.8963 56.375 46.75Z" stroke="#F15623" stroke-width="4" stroke-miterlimit="10"/>
</svg>
