<svg width="64" height="64" viewBox="0 0 64 64" fill="none" xmlns="http://www.w3.org/2000/svg">
<path d="M53.3333 26.6667L55.2187 28.552L57.104 26.6667L55.2187 24.7813L53.3333 26.6667ZM8 48C8 48.7072 8.28095 49.3855 8.78105 49.8856C9.28115 50.3857 9.95943 50.6667 10.6667 50.6667C11.3739 50.6667 12.0522 50.3857 12.5523 49.8856C13.0524 49.3855 13.3333 48.7072 13.3333 48H8ZM41.8853 41.8853L55.2187 28.552L51.448 24.7813L38.1147 38.1147L41.8853 41.8853ZM55.2187 24.7813L41.8853 11.448L38.1147 15.2187L51.448 28.552L55.2187 24.7813ZM53.3333 24H26.6667V29.3333H53.3333V24ZM8 42.6667V48H13.3333V42.6667H8ZM26.6667 24C21.716 24 16.968 25.9667 13.4673 29.4673C9.96667 32.968 8 37.716 8 42.6667H13.3333C13.3333 39.1304 14.7381 35.7391 17.2386 33.2386C19.7391 30.7381 23.1305 29.3333 26.6667 29.3333V24Z" fill="#F15623"/>
</svg>
